<svg width="12" height="20" viewBox="0 0 12 20" fill="none" xmlns="http://www.w3.org/2000/svg">
<path d="M6 19H2V18H1V2H2V1H6V19Z" fill="#DDDDDD"/>
<rect y="2" width="1" height="16" fill="#9D9D9D"/>
<rect x="1" y="1" width="1" height="1" fill="#9D9D9D"/>
<rect x="2" width="4" height="1" fill="#9D9D9D"/>
<rect x="1" y="18" width="1" height="1" fill="#9D9D9D"/>
<rect x="2" y="19" width="4" height="1" fill="#9D9D9D"/>
<path d="M6 1L10 1L10 2L11 2L11 18L10 18L10 19L6 19L6 1Z" fill="#DDDDDD"/>
<rect x="12" y="18" width="1" height="16" transform="rotate(-180 12 18)" fill="#9D9D9D"/>
<rect x="11" y="19" width="1" height="1" transform="rotate(-180 11 19)" fill="#9D9D9D"/>
<rect x="10" y="20" width="4" height="1" transform="rotate(-180 10 20)" fill="#9D9D9D"/>
<rect x="11" y="2" width="1" height="1" transform="rotate(-180 11 2)" fill="#9D9D9D"/>
<rect x="10" y="1" width="4" height="1" transform="rotate(-180 10 1)" fill="#9D9D9D"/>
</svg>
