<svg width="512" height="384" viewBox="0 0 512 384" fill="none" xmlns="http://www.w3.org/2000/svg">
<g clip-path="url(#clip0_29_4372)">
<rect width="512" height="384" fill="white"/>
<path d="M140.112 462.463C74.8945 435.277 20.0438 381.658 -14.4388 303.573C-45.0534 234.571 -49.8353 165.448 -32.8916 103.471L-32.9413 103.521L-110.558 138.891L50.6985 503.218L140.06 462.495L140.112 462.463Z" fill="#EDCBD4"/>
<path d="M550.445 277.359C560.333 248.147 566.608 216.192 569.728 181.498L464.518 177.512C456.391 240.557 432.561 306.043 371.686 334.169C282.756 374.359 213.744 313.972 170.014 215.68L501.825 64.3646C497.309 53.0755 495.003 47.9201 492.173 42.7854C468.207 -16.6273 430.833 -58.7097 385.697 -84.1709L385.601 -83.9955L460.31 -118.065L622.465 244.491L550.273 277.412L550.445 277.359Z" fill="#EDCBD4"/>
<path d="M137.743 127.319C121.528 81.3135 143.089 35.6508 184.016 16.982C225.303 -1.63408 268.484 14.6677 289.387 58.5468L137.743 127.319Z" fill="#EDCBD4"/>
</g>
<defs>
<clipPath id="clip0_29_4372">
<rect width="512" height="384" fill="white"/>
</clipPath>
</defs>
</svg>
